<?xml version="1.0" encoding="utf-8"?>
<!-- Generator: Adobe Illustrator 18.1.0, SVG Export Plug-In . SVG Version: 6.00 Build 0)  -->
<svg version="1.1" id="Layer_1" xmlns="http://www.w3.org/2000/svg" xmlns:xlink="http://www.w3.org/1999/xlink" x="0px" y="0px"
	 viewBox="0 0 16 16" enable-background="new 0 0 16 16" xml:space="preserve">
<path fill="#19758F" d="M8,0C3.6,0,0,3.6,0,8c0,4.4,3.6,8,8,8c4.4,0,8-3.6,8-8C16,3.6,12.4,0,8,0z M8,13c-2.8,0-5-2.2-5-5s2.2-5,5-5
	c2.4,0,4.5,1.8,4.9,4.1C12.8,7,12.6,7,12.5,7H10V5.5C10,4.7,9.3,4,8.5,4C7.7,4,7,4.7,7,5.5v3C7,9.3,7.7,10,8.5,10h4c0,0,0.1,0,0.1,0
	C11.8,11.8,10,13,8,13z"/>
</svg>
