<?xml version="1.0" encoding="utf-8"?>
<!-- Generator: Adobe Illustrator 18.1.0, SVG Export Plug-In . SVG Version: 6.00 Build 0)  -->
<svg version="1.1" id="Layer_1" xmlns="http://www.w3.org/2000/svg" xmlns:xlink="http://www.w3.org/1999/xlink" x="0px" y="0px"
	 viewBox="0 0 12 12" enable-background="new 0 0 12 12" xml:space="preserve">
<path fill="#059BC7" d="M8.1,6l3.4-3.4c0.6-0.6,0.6-1.5,0-2.1s-1.5-0.6-2.1,0L6,3.9L2.6,0.5C2-0.1,1-0.1,0.4,0.5
	c-0.6,0.6-0.6,1.5,0,2.1L3.8,6L0.4,9.4c-0.6,0.6-0.6,1.5,0,2.1c0.6,0.6,1.5,0.6,2.1,0L6,8.1l3.4,3.4c0.6,0.6,1.5,0.6,2.1,0
	s0.6-1.5,0-2.1L8.1,6z"/>
</svg>
