<?xml version="1.0" encoding="utf-8"?>
<!-- Generator: Adobe Illustrator 18.1.0, SVG Export Plug-In . SVG Version: 6.00 Build 0)  -->
<svg version="1.1" id="Layer_1" xmlns="http://www.w3.org/2000/svg" xmlns:xlink="http://www.w3.org/1999/xlink" x="0px" y="0px"
	 viewBox="0 0 21 15" enable-background="new 0 0 21 15" xml:space="preserve">
<path fill="#8FC2D1" d="M19,0H2C0.9,0,0,0.9,0,2v11c0,1.1,0.9,2,2,2h17c1.1,0,2-0.9,2-2V2C21,0.9,20.1,0,19,0z M18,2l-7.5,7.3L3,2
	H18z M2,12V3.6l4.4,4.3L2,12z M3.2,13l4.3-4.1l1.6,1.6l1.4,1.4l1.4-1.4l1.6-1.6l4.3,4.1H3.2z M19,12l-4.4-4.1L19,3.6V12z"/>
</svg>
