<?xml version="1.0" encoding="utf-8"?>
<!-- Generator: Adobe Illustrator 18.1.0, SVG Export Plug-In . SVG Version: 6.00 Build 0)  -->
<svg version="1.1" id="Layer_1" xmlns="http://www.w3.org/2000/svg" xmlns:xlink="http://www.w3.org/1999/xlink" x="0px" y="0px"
	 viewBox="0 0 16 15" enable-background="new 0 0 16 15" xml:space="preserve">
<g>
	<path fill="#19758F" d="M2.9,14.4c0.1-0.5,0.2-1,0.3-1.4c0.2-1,0.4-2,0.5-3c0-0.2,0-0.4-0.2-0.6c-1.1-1-2.1-2-3.2-3
		C0.1,6.1-0.1,5.9,0,5.7c0.1-0.2,0.3-0.3,0.5-0.4C2,5.1,3.5,4.9,4.9,4.7c0.3,0,0.4-0.2,0.6-0.4c0.6-1.3,1.3-2.6,2-3.9
		C7.6,0.1,7.7,0,8,0c0.3,0,0.4,0.2,0.5,0.4c0.6,1.3,1.3,2.6,2,3.9c0.1,0.3,0.3,0.4,0.6,0.4c1.5,0.2,2.9,0.4,4.4,0.6
		c0.2,0,0.4,0.1,0.5,0.4c0.1,0.2,0,0.4-0.2,0.6c-1.1,1-2.1,2-3.2,3.1c-0.2,0.2-0.3,0.4-0.2,0.7c0.3,1.4,0.5,2.8,0.8,4.3
		c0,0.2,0,0.4-0.2,0.6c-0.2,0.2-0.4,0.1-0.6,0c-1.3-0.7-2.6-1.3-3.9-2c-0.3-0.1-0.5-0.1-0.7,0c-1.3,0.7-2.6,1.3-3.9,2
		C3.3,15.1,2.8,14.9,2.9,14.4z"/>
</g>
</svg>
