<?xml version="1.0" encoding="utf-8"?>
<!-- Generator: Adobe Illustrator 18.1.0, SVG Export Plug-In . SVG Version: 6.00 Build 0)  -->
<svg version="1.1" id="Layer_1" xmlns="http://www.w3.org/2000/svg" xmlns:xlink="http://www.w3.org/1999/xlink" x="0px" y="0px"
	 viewBox="0 0 44 44" enable-background="new 0 0 44 44" xml:space="preserve">
<g>
	<path fill="#8FC2D1" d="M0,0v44h44V0H0z M41,41h-4l0,0l0,0c-2-3.7-4.2-6.2-6-7c-1.8-0.8-3-1-3-1s-1,2.8-6,3s-6-3-6-3s-1.4-0.1-3,1
		c-4.4,2.8-5.7,5.1-5.9,7l0,0H3V3h38V41z"/>
	<path fill="#8FC2D1" d="M12,31c3.2,0,4,0,4,0L16,30.6c1.7,1.5,3.8,2.4,6.1,2.4c2.4,0,4.5-0.9,6.2-2.5C29,30.7,30,31,31,31
		c2,0,1.9,1.1,1-13c-0.2-3.6-3.2-6.8-5-7c-0.6-0.1-1.2-0.3-1.9-0.4c-1-0.4-2-0.6-3.1-0.6c0,0,0,0,0,0c-0.6,0-1.2-0.1-2,0
		c-7.7,0.6-10.3,11.1-10,13C11.1,29.7,8.2,31,12,31z M26,14c0.1-0.2,0.2-0.3,0.4-0.5c2.2,1.7,3.6,4.6,3.6,8c0,5.2-3.6,9.5-8,9.5
		c-2.7,0-5.1-1.6-6.6-4.1L15,24C15,24,20.5,21.7,26,14z"/>
</g>
</svg>
