<?xml version="1.0" encoding="utf-8"?>
<!-- Generator: Adobe Illustrator 18.1.0, SVG Export Plug-In . SVG Version: 6.00 Build 0)  -->
<svg version="1.1" id="Layer_1" xmlns="http://www.w3.org/2000/svg" xmlns:xlink="http://www.w3.org/1999/xlink" x="0px" y="0px"
	 viewBox="0 0 18 16" enable-background="new 0 0 18 16" xml:space="preserve">
<g>
	<path fill="#19758F" d="M12.8,10.3C11,8.5,9.2,6.6,7.4,4.8C5.7,3,5.1,2.4,3.3,0.6C3.1,0.4,2.8,0.1,2.4,0C2.3,0,2.2,0,2,0
		C1.8,0.1,1.5,0.2,1.4,0.5C1.3,0.6,1.2,0.8,1.1,1c0,0.1,0,0.2,0,0.3c0.1,0.4,0.4,0.7,0.7,1c0.9,1,0.8,0.8,1.7,1.7c0,0,0,0,0,0
		c-0.1,0-0.1,0.1-0.2,0.1c-1,0.7-1.9,1.5-2.7,2.5C0.4,7.1,0.1,7.4,0,7.9C0,8,0,8,0,8.1c0.5,1.1,1.3,2,2.2,2.8
		c0.7,0.7,1.5,1.2,2.4,1.7c1.1,0.6,2.3,1,3.6,1.1c1.4,0.1,2.7-0.1,4-0.6c0.1,0,0.2,0,0.3,0.1c1.2,1.2,1.2,1.3,2.4,2.5
		c0.2,0.2,0.4,0.3,0.6,0.4c0.1,0,0.3,0,0.4,0c0,0,0,0,0,0c0.8-0.2,1.2-1.2,0.5-2C14.9,12.4,14.4,11.9,12.8,10.3z M6.8,10.6
		C5.5,9.5,5.4,7.7,6,6.6c1.5,1.5,3,3,4.4,4.5C9.6,11.6,8,11.6,6.8,10.6z"/>
	<path fill="#19758F" d="M17.9,7.7c-0.1-0.2-0.1-0.3-0.2-0.5c-0.3-0.6-0.8-1.1-1.3-1.6c-1.1-1.1-2.3-1.9-3.6-2.5
		c-1.3-0.6-2.7-0.9-4.2-0.9c-0.1,0-0.3,0-0.4,0c2.7,2.7,5.4,5.5,8,8.2c0.2-0.2,0.5-0.5,0.7-0.7c0.3-0.4,0.6-0.8,0.9-1.3
		C18,8.3,18.1,8,17.9,7.7z"/>
</g>
</svg>
