<?xml version="1.0" encoding="utf-8"?>
<!-- Generator: Adobe Illustrator 18.1.0, SVG Export Plug-In . SVG Version: 6.00 Build 0)  -->
<svg version="1.1" id="Layer_1" xmlns="http://www.w3.org/2000/svg" xmlns:xlink="http://www.w3.org/1999/xlink" x="0px" y="0px"
	 viewBox="0 0 17 17.3" enable-background="new 0 0 17 17.3" xml:space="preserve">
<path fill="#059BC7" d="M16.7,9.5l-0.1-0.2c-0.2-0.3-0.4-0.6-0.7-0.8c-0.2-0.2-0.5-0.3-0.8-0.4c0.8-0.4,1.3-0.9,1.5-1.5
	c0.2-0.5,0.1-1-0.1-1.4v0c-0.3-0.5-0.7-0.8-1.3-1c-0.4-0.1-0.8-0.1-1.1,0l-0.8,0.2l0.3-0.6c0.2-0.8,0.2-1.5-0.2-2.3l-0.1-0.1
	c-0.4-0.6-0.9-1-1.6-1.2C10.8-0.1,10.1,0,9.4,0.4S8.2,1.3,8,2v0l0,0.2L7.9,2.1L7.6,1.6C7.2,1,6.8,0.6,6.1,0.5
	c-0.5-0.1-1-0.1-1.4,0.2C4.2,1,3.9,1.5,3.8,2.1c-0.1,0.7,0,1.4,0.4,2.1l0.2,0.2L3.7,4.3C3,4.1,2.3,4.2,1.6,4.6
	C0.9,4.9,0.5,5.4,0.2,6.2c-0.3,0.7-0.2,1.3,0.1,2c0.1,0.3,0.4,0.5,0.6,0.6C1.1,9,1.5,9.2,1.9,9.3l0.2,0L1.7,9.7
	c-0.3,0.3-0.5,0.7-0.7,1C1,11.1,1,11.6,1.3,12c0.1,0.2,0.2,0.4,0.4,0.5c0.2,0.2,0.4,0.3,0.7,0.3c0.5,0.1,1.1,0.1,1.7-0.1l-0.4,0.7
	l-0.1,0.3c-0.2,0.8-0.2,1.5,0.2,2.2c0.2,0.3,0.4,0.5,0.6,0.7c0.3,0.3,0.7,0.4,1.1,0.6c0.7,0.2,1.5,0.2,2.2-0.2
	c0.7-0.4,1.1-1,1.3-1.7l0-0.1c0.5,0.5,0.9,0.9,1.4,1c0.5,0.1,1,0.1,1.4-0.2c0.4-0.2,0.7-0.7,0.9-1.2c0.1-0.5,0.1-1.1,0-1.7
	c0.2,0.2,0.5,0.3,0.8,0.4c0.8,0.2,1.5,0.2,2.1-0.1c0.7-0.4,1.1-1,1.3-1.7C17.1,10.9,17,10.2,16.7,9.5z M13.1,5.4l0.3-0.1
	c0.4-0.2,0.9-0.2,1.3-0.2c0.4,0,0.7,0.2,0.9,0.5L15.7,6l0,0.2c-0.2,0.4-0.5,0.8-1.1,1.1c-0.2,0.1-0.5,0.2-0.8,0.2l-3,0.4l0-0.2
	l0-0.1l0.1-0.1L13.1,5.4z M9,2.4c0.1-0.5,0.5-0.9,0.9-1.1C10.3,1,10.8,1,11.3,1.1c0.5,0.1,0.9,0.4,1.1,0.8c0.1,0.2,0.2,0.5,0.2,0.9
	l-0.1,0.5c-0.1,0.3-0.2,0.5-0.4,0.7L9.9,6.8C9.7,6.6,9.5,6.5,9.2,6.3L9,3.6l0-1L9,2.4z M4.8,2.4C4.8,2,5,1.7,5.3,1.5
	c0.1-0.1,0.4-0.1,0.6,0c0.4,0.1,0.8,0.4,1.1,1.1C7.1,2.8,7.2,3,7.2,3.3l0.5,2.9L7.4,6.3L5.2,4L5.1,3.7C4.9,3.3,4.7,2.9,4.8,2.4z
	 M2.4,8.3l-0.2,0C1.7,8.2,1.4,8,1.2,7.6S1,6.9,1.2,6.5c0.2-0.5,0.5-0.8,1-1C2.6,5.2,3,5.2,3.5,5.3l0.7,0.3l2.1,1.6
	C6.1,7.4,6,7.6,5.9,7.9L2.4,8.3z M8,14.8l0,0.2c-0.2,0.4-0.5,0.8-0.9,1c-0.4,0.2-0.9,0.3-1.3,0.2c-0.5-0.1-0.9-0.4-1.1-0.8
	c-0.1-0.2-0.2-0.5-0.2-0.8l0.1-0.6c0-0.2,0.2-0.5,0.4-0.7L7,10.9c0.2,0.1,0.5,0.2,0.8,0.3c0,0.8,0.1,1.7,0.2,2.7
	C8,13.9,8,14.8,8,14.8z M7.2,9.9C6.9,9.7,6.7,9.2,6.7,8.8c0-0.4,0.2-0.8,0.5-1.1c0.3-0.3,0.7-0.4,1.1-0.4c0.4,0,0.9,0.2,1.1,0.4
	C9.8,8,9.9,8.4,9.9,8.8c0,0.4-0.1,0.9-0.5,1.1c-0.3,0.3-0.7,0.5-1.1,0.5C7.9,10.4,7.5,10.3,7.2,9.9z M11.7,14.2
	c0,0.4-0.2,0.8-0.5,0.9c-0.2,0.1-0.4,0.1-0.6,0.1c-0.5-0.1-0.8-0.5-1.1-1.1l-0.3-0.8l-0.4-2.1L9.3,11l0.3-0.2l1,1.1l0.6,0.8l0.1,0.2
	C11.6,13.4,11.8,13.8,11.7,14.2z M15.9,11.4c-0.1,0.5-0.4,0.9-0.8,1.1c-0.4,0.2-0.9,0.3-1.4,0.1c-0.3-0.1-0.5-0.2-0.7-0.4L10.5,10
	l0.2-0.4l0.1-0.3l2.8-0.2l1,0l0.2,0c0.4,0.1,0.7,0.3,0.9,0.7c0.2,0.3,0.4,0.6,0.4,1.1L15.9,11.4z"/>
</svg>
