<?xml version="1.0" encoding="utf-8"?>
<!-- Generator: Adobe Illustrator 18.1.0, SVG Export Plug-In . SVG Version: 6.00 Build 0)  -->
<svg version="1.1" id="Layer_1" xmlns="http://www.w3.org/2000/svg" xmlns:xlink="http://www.w3.org/1999/xlink" x="0px" y="0px"
	 viewBox="0 0 14 13" enable-background="new 0 0 14 13" xml:space="preserve">
<g>
	<path fill="#19758F" d="M7,1.6c0.4-0.5,0.9-0.9,1.5-1.2c2.4-1.2,5.3,0.4,5.5,3.1c0.1,1.1-0.3,2-1,2.8c-1.9,2.1-3.7,4.3-5.6,6.4
		c-0.3,0.4-0.7,0.4-1,0c-1-1.2-2-2.4-3.1-3.6c-0.8-1-1.7-1.9-2.5-2.9c-1.1-1.4-1.2-3.4,0-4.7c1.6-2,4.5-1.9,6.1,0
		C6.9,1.5,7,1.5,7,1.6z"/>
</g>
</svg>
