<?xml version="1.0" encoding="utf-8"?>
<!-- Generator: Adobe Illustrator 18.1.0, SVG Export Plug-In . SVG Version: 6.00 Build 0)  -->
<svg version="1.1" id="Layer_1" xmlns="http://www.w3.org/2000/svg" xmlns:xlink="http://www.w3.org/1999/xlink" x="0px" y="0px"
	 viewBox="0 0 24.8 24.7" enable-background="new 0 0 24.8 24.7" xml:space="preserve">
<g>
	<path fill="#17748F" d="M2.7,0C2.5,0.4,2.3,0.7,1.9,1S1.1,1.5,0.5,1.7v1.5c0.4-0.1,0.8-0.3,1-0.4c0.3-0.1,0.6-0.3,0.9-0.5v4.3h1.8
		V0L2.7,0L2.7,0z"/>
	<path fill="#17748F" d="M5.4,14.1H2.6c0.2-0.2,0.3-0.3,0.4-0.4c0.1-0.1,0.4-0.3,0.7-0.5c0.6-0.4,1-0.8,1.3-1.2s0.3-0.7,0.3-1.1
		c0-0.4-0.1-0.7-0.3-1C4.8,9.6,4.6,9.4,4.2,9.2C3.9,9.1,3.4,9,2.7,9C2.1,9,1.7,9.1,1.3,9.2C1,9.4,0.7,9.6,0.5,9.9
		c-0.2,0.3-0.3,0.7-0.4,1.2l1.8,0.1c0-0.4,0.1-0.6,0.3-0.8c0.1-0.1,0.3-0.2,0.6-0.2c0.2,0,0.4,0.1,0.5,0.2c0.1,0.1,0.2,0.3,0.2,0.5
		c0,0.2-0.1,0.4-0.2,0.6s-0.5,0.5-1,0.9c-0.9,0.6-1.4,1.2-1.8,1.7c-0.3,0.5-0.5,1-0.6,1.5h5.4L5.4,14.1L5.4,14.1z"/>
	<path fill="#17748F" d="M2.1,19.3c0.1-0.1,0.3-0.2,0.5-0.2c0.2,0,0.4,0.1,0.5,0.2c0.1,0.1,0.2,0.3,0.2,0.5c0,0.2-0.1,0.4-0.2,0.5
		c-0.2,0.1-0.4,0.2-0.6,0.2c-0.1,0-0.1,0-0.2,0l-0.1,1.3c0.2-0.1,0.4-0.1,0.6-0.1c0.3,0,0.5,0.1,0.6,0.2c0.2,0.2,0.2,0.4,0.2,0.7
		c0,0.3-0.1,0.5-0.2,0.7c-0.2,0.2-0.4,0.3-0.6,0.3c-0.2,0-0.4-0.1-0.6-0.2C2,23.2,1.9,23,1.9,22.6l-1.8,0.2c0.1,0.4,0.3,0.7,0.5,1
		c0.2,0.3,0.5,0.5,0.8,0.6s0.8,0.2,1.4,0.2c0.6,0,1.1-0.1,1.5-0.3s0.7-0.5,0.8-0.8c0.2-0.3,0.3-0.7,0.3-1.1c0-0.3-0.1-0.6-0.2-0.8
		c-0.1-0.2-0.3-0.4-0.5-0.5c-0.1-0.1-0.3-0.2-0.6-0.2c0.3-0.2,0.5-0.4,0.7-0.6s0.2-0.5,0.2-0.8c0-0.5-0.2-0.9-0.6-1.2S3.5,18,2.7,18
		C2,18,1.4,18.1,1,18.4s-0.7,0.7-0.8,1.2L1.9,20C1.9,19.7,2,19.4,2.1,19.3z"/>
	<path fill="#17748F" d="M8.8,3.6h16v1h-16V3.6z"/>
	<path fill="#17748F" d="M8.8,12.6h16v1h-16V12.6z"/>
	<path fill="#17748F" d="M8.8,21.6h16v1h-16V21.6z"/>
</g>
</svg>
