<?xml version="1.0" encoding="utf-8"?>
<!-- Generator: Adobe Illustrator 18.1.0, SVG Export Plug-In . SVG Version: 6.00 Build 0)  -->
<svg version="1.1" id="Layer_1" xmlns="http://www.w3.org/2000/svg" xmlns:xlink="http://www.w3.org/1999/xlink" x="0px" y="0px"
	 viewBox="0 0 25 23" enable-background="new 0 0 25 23" xml:space="preserve">
<g>
	<path fill="#19758F" d="M9,2h16v1H9V2z"/>
	<path fill="#19758F" d="M9,11h16v1H9V11z"/>
	<path fill="#19758F" d="M9,20h16v1H9V20z"/>
	<path fill="#19758F" d="M2.5,9C3.9,9,5,10.1,5,11.5S3.9,14,2.5,14S0,12.9,0,11.5S1.1,9,2.5,9z"/>
	<path fill="#19758F" d="M2.5,18C3.9,18,5,19.1,5,20.5C5,21.9,3.9,23,2.5,23S0,21.9,0,20.5C0,19.1,1.1,18,2.5,18z"/>
	<path fill="#19758F" d="M2.5,0C3.9,0,5,1.1,5,2.5C5,3.9,3.9,5,2.5,5S0,3.9,0,2.5C0,1.1,1.1,0,2.5,0z"/>
</g>
</svg>
