<?xml version="1.0" encoding="utf-8"?>
<!-- Generator: Adobe Illustrator 18.1.0, SVG Export Plug-In . SVG Version: 6.00 Build 0)  -->
<svg version="1.1" id="Layer_1" xmlns="http://www.w3.org/2000/svg" xmlns:xlink="http://www.w3.org/1999/xlink" x="0px" y="0px"
	 viewBox="0 0 44 44" enable-background="new 0 0 44 44" xml:space="preserve">
<g>
	<path fill="#8FC2D1" d="M22,31c5.5,0,10-5.4,10-12S27.5,7,22,7s-10,5.4-10,12C12,25.6,16.5,31,22,31z M22,9.5c4.4,0,8,4.3,8,9.5
		c0,5.2-3.6,9.5-8,9.5s-8-4.3-8-9.5C14,13.8,17.6,9.5,22,9.5z"/>
	<path fill="#8FC2D1" d="M0,0v44h44V0H0z M41,41h-3.1c-1.9-4.5-2-5.7-6.6-9.2c-1.6-1.2-3.4-0.8-3.4-0.8s-0.8,3.2-6.1,3
		c-5.3-0.1-6.4-3.3-6.4-3.3s-0.4-0.1-2.1,1.1c-5.5,3.7-6.3,6.5-6.3,8.9c0,0.1,0,0.2,0,0.3H3V3h38L41,41L41,41z"/>
</g>
</svg>
