<?xml version="1.0" encoding="utf-8"?>
<!-- Generator: Adobe Illustrator 18.1.0, SVG Export Plug-In . SVG Version: 6.00 Build 0)  -->
<svg version="1.1" id="Layer_1" xmlns="http://www.w3.org/2000/svg" xmlns:xlink="http://www.w3.org/1999/xlink" x="0px" y="0px"
	 viewBox="0 0 16 16" enable-background="new 0 0 16 16" xml:space="preserve">
<path fill="#19758F" d="M12,0H4C1.8,0,0,1.8,0,4v8c0,2.2,1.8,4,4,4h8c2.2,0,4-1.8,4-4V4C16,1.8,14.2,0,12,0z M14,12c0,1.1-0.9,2-2,2
	H4c-1.1,0-2-0.9-2-2V4c0-1.1,0.9-2,2-2h8c1.1,0,2,0.9,2,2V12z"/>
<path fill="#19758F" d="M5,7h6c0.6,0,1,0.4,1,1s-0.4,1-1,1H5C4.4,9,4,8.6,4,8S4.4,7,5,7z"/>
</svg>
