<?xml version="1.0" encoding="utf-8"?>
<!-- Generator: Adobe Illustrator 18.1.0, SVG Export Plug-In . SVG Version: 6.00 Build 0)  -->
<svg version="1.1" id="Layer_1" xmlns="http://www.w3.org/2000/svg" xmlns:xlink="http://www.w3.org/1999/xlink" x="0px" y="0px"
	 viewBox="0 0 16 15" enable-background="new 0 0 16 15" xml:space="preserve">
<g>
	<path fill="#19758F" d="M2.2,3.4c-1.8,2.7-1.7,5.5,0,8.3C1.5,12.3,0.8,13,0,13.6c2.3,0.5,4.6,0.9,6.8,1.4c0-2.4,0-4.9,0-7.3
		C6,8.4,5.3,9,4.5,9.7c-0.7-1-0.9-2.1-0.6-3.2c0.5-1.6,1.5-2.6,3.2-2.8c0-1,0-2,0-3C5.1,0.8,3.4,1.7,2.2,3.4z"/>
	<path fill="#19758F" d="M16,1.4C13.7,0.9,11.4,0.5,9.2,0c0,2.5,0,4.9,0,7.3c0.8-0.7,1.6-1.4,2.3-2C12,5.8,12.4,7,12.2,8.1
		c-0.3,1.9-1.5,2.9-3.2,3.3c0,1,0,2,0,3c2.3-0.2,4.1-1.3,5.2-3.3c1.5-2.6,1.2-5.2-0.3-7.7C14.5,2.7,15.2,2,16,1.4z"/>
</g>
</svg>
