<?xml version="1.0" encoding="utf-8"?>
<!-- Generator: Adobe Illustrator 18.1.0, SVG Export Plug-In . SVG Version: 6.00 Build 0)  -->
<svg version="1.1" id="Layer_1" xmlns="http://www.w3.org/2000/svg" xmlns:xlink="http://www.w3.org/1999/xlink" x="0px" y="0px"
	 viewBox="0 0 16.3 16.6" enable-background="new 0 0 16.3 16.6" xml:space="preserve">
<path fill="#059BC7" d="M15.8,10C15.9,9.5,16,8.9,16,8.4c0-4.3-3.5-7.8-7.8-7.8c-0.5,0-0.9,0-1.3,0.1C6.2,0.3,5.4,0,4.5,0
	C2,0,0,2,0,4.5c0,0.8,0.2,1.6,0.6,2.3c-0.1,0.5-0.2,1-0.2,1.6c0,4.3,3.5,7.8,7.8,7.8c0.5,0,1,0,1.4-0.1c0.6,0.3,1.4,0.5,2.1,0.5
	c2.5,0,4.5-2,4.5-4.5C16.3,11.3,16.1,10.6,15.8,10z M12.2,12.1c-0.4,0.5-0.9,0.9-1.6,1.2c-0.7,0.3-1.5,0.4-2.4,0.4
	c-1.1,0-2.1-0.2-2.8-0.6c-0.5-0.3-1-0.7-1.3-1.1c-0.3-0.5-0.5-1-0.5-1.4c0-0.3,0.1-0.5,0.3-0.7c0.2-0.2,0.5-0.3,0.8-0.3
	c0.3,0,0.5,0.1,0.7,0.2c0.2,0.2,0.3,0.4,0.5,0.7c0.1,0.3,0.3,0.6,0.4,0.8c0.2,0.2,0.4,0.4,0.7,0.5C7.3,11.9,7.7,12,8.2,12
	c0.6,0,1.2-0.1,1.6-0.4c0.4-0.3,0.6-0.6,0.6-1c0-0.3-0.1-0.5-0.3-0.7C9.8,9.6,9.5,9.5,9.2,9.4C8.8,9.3,8.3,9.2,7.7,9
	c-0.8-0.2-1.5-0.4-2-0.6c-0.6-0.2-1-0.6-1.3-1C4,7,3.9,6.5,3.9,5.9c0-0.6,0.2-1.1,0.5-1.6c0.3-0.5,0.9-0.8,1.5-1
	C6.5,3,7.3,2.9,8.2,2.9C8.9,2.9,9.5,3,10,3.1c0.5,0.2,0.9,0.4,1.3,0.6C11.6,4,11.9,4.3,12,4.6c0.2,0.3,0.2,0.6,0.2,0.9
	c0,0.3-0.1,0.5-0.3,0.8c-0.2,0.2-0.5,0.3-0.8,0.3c-0.3,0-0.5-0.1-0.7-0.2c-0.1-0.1-0.3-0.3-0.5-0.6C9.8,5.4,9.6,5.1,9.3,4.9
	C9.1,4.7,8.6,4.6,8,4.6c-0.6,0-1,0.1-1.3,0.3C6.4,5.1,6.2,5.4,6.2,5.7c0,0.2,0.1,0.3,0.2,0.5c0.1,0.1,0.3,0.3,0.5,0.4
	C7,6.6,7.2,6.7,7.4,6.7C7.7,6.8,8,6.9,8.5,7c0.6,0.1,1.2,0.3,1.7,0.5c0.5,0.2,1,0.4,1.3,0.6c0.4,0.2,0.7,0.6,0.9,0.9
	c0.2,0.4,0.3,0.8,0.3,1.4C12.8,11,12.6,11.6,12.2,12.1z"/>
</svg>
