<?xml version="1.0" encoding="utf-8"?>
<!-- Generator: Adobe Illustrator 18.1.0, SVG Export Plug-In . SVG Version: 6.00 Build 0)  -->
<svg version="1.1" id="Layer_1" xmlns="http://www.w3.org/2000/svg" xmlns:xlink="http://www.w3.org/1999/xlink" x="0px" y="0px"
	 viewBox="0 0 9 11" enable-background="new 0 0 9 11" xml:space="preserve">
<path fill="#537598" d="M8.3,5.8C8.1,5.6,7.9,5.4,7.6,5.2C7.4,5.2,6.8,5,6.7,4.9c1-0.6,1.5-1.1,1.5-2.5C8.3,0.8,6.8,0,5.1,0H0l0,11
	h4.9C6.9,11,9,9.9,9,7.8C9,6.9,8.9,6.3,8.3,5.8z M5.4,3.1c0,1.4-1.2,1.2-2.6,1.2V2.9l0-0.9C4,2,5.4,1.8,5.4,3.1z M2.8,9l0-2.7
	c1.4,0,3.3-0.3,3.3,1.4C6,9.2,4.2,9,2.8,9z"/>
</svg>
