<?xml version="1.0" encoding="utf-8"?>
<!-- Generator: Adobe Illustrator 18.1.0, SVG Export Plug-In . SVG Version: 6.00 Build 0)  -->
<svg version="1.1" id="Layer_1" xmlns="http://www.w3.org/2000/svg" xmlns:xlink="http://www.w3.org/1999/xlink" x="0px" y="0px"
	 viewBox="0 0 13.1 10.3" enable-background="new 0 0 13.1 10.3" xml:space="preserve">
<g>
	<path fill="#5FA9DD" d="M13.1,1.2c-0.5,0.2-1,0.3-1.5,0.4c0.6-0.3,1-0.8,1.2-1.4c-0.5,0.3-1.1,0.5-1.7,0.6C10.6,0.3,9.9,0,9.1,0
		C7.6,0,6.4,1.2,6.4,2.6c0,0.2,0,0.4,0.1,0.6C4.2,3.1,2.2,2.1,0.9,0.5C0.7,0.9,0.6,1.3,0.6,1.8C0.6,2.7,1,3.5,1.8,4
		c-0.4,0-0.9-0.1-1.2-0.3c0,0,0,0,0,0c0,1.3,0.9,2.3,2.2,2.6C2.5,6.3,2.2,6.3,2,6.3c-0.2,0-0.3,0-0.5,0c0.3,1,1.3,1.8,2.5,1.8
		C3.1,8.8,1.9,9.2,0.6,9.2c-0.2,0-0.4,0-0.6,0c1.2,0.7,2.6,1.2,4.1,1.2c5,0,7.7-4,7.7-7.4c0-0.1,0-0.2,0-0.3
		C12.3,2.2,12.8,1.7,13.1,1.2L13.1,1.2z"/>
</g>
</svg>
