<?xml version="1.0" encoding="utf-8"?>
<!-- Generator: Adobe Illustrator 18.1.0, SVG Export Plug-In . SVG Version: 6.00 Build 0)  -->
<svg version="1.1" id="Layer_1" xmlns="http://www.w3.org/2000/svg" xmlns:xlink="http://www.w3.org/1999/xlink" x="0px" y="0px"
	 viewBox="0 0 8.8 14.2" enable-background="new 0 0 8.8 14.2" xml:space="preserve">
<g>
	<path fill="#F38121" d="M8.7,7.6C8.5,7.2,7.9,6.9,7.1,7.5c-1,0.8-2.7,0.8-2.7,0.8s-1.7,0-2.7-0.8C0.9,6.9,0.3,7.2,0.1,7.6
		c-0.4,0.7,0,1.1,1,1.6C1.9,9.7,3,9.9,3.7,10l-0.6,0.6c-0.8,0.8-1.6,1.6-2.2,2.1c-0.3,0.3-0.3,0.8,0,1.2L1,13.9
		c0.2,0.2,0.4,0.2,0.6,0.2h0c0.2,0,0.4-0.1,0.6-0.2l2.2-2.1c0.8,0.8,1.6,1.6,2.2,2.1c0.3,0.3,0.9,0.3,1.2,0l0.1-0.1
		c0.3-0.3,0.3-0.8,0-1.2l-2.2-2.1L5.1,10c0.7-0.1,1.8-0.3,2.6-0.7C8.6,8.7,9,8.3,8.7,7.6L8.7,7.6z M4.4,1.8c1,0,1.8,0.8,1.8,1.8
		c0,1-0.8,1.8-1.8,1.8S2.6,4.6,2.6,3.6C2.6,2.6,3.4,1.8,4.4,1.8L4.4,1.8z M4.4,7.2c2,0,3.7-1.6,3.7-3.6c0-2-1.7-3.6-3.7-3.6
		S0.7,1.6,0.7,3.6C0.7,5.6,2.4,7.2,4.4,7.2L4.4,7.2z"/>
</g>
</svg>
