<?xml version="1.0" encoding="utf-8"?>
<!-- Generator: Adobe Illustrator 18.1.0, SVG Export Plug-In . SVG Version: 6.00 Build 0)  -->
<svg version="1.1" id="Layer_1" xmlns="http://www.w3.org/2000/svg" xmlns:xlink="http://www.w3.org/1999/xlink" x="0px" y="0px"
	 viewBox="0 0 26 26" enable-background="new 0 0 26 26" xml:space="preserve">
<path fill="#3BAACA" d="M13,0C5.8,0,0,5.8,0,13s5.8,13,13,13c7.2,0,13-5.8,13-13S20.2,0,13,0z M13,24C6.9,24,2,19.1,2,13S6.9,2,13,2
	s11,4.9,11,11S19.1,24,13,24z"/>
<g>
	<path fill="#3BAACA" d="M15,7.5v-2h-4v2H5v12h16v-12H15z M19,17.5H7v-8h4v1h4v-1h4L19,17.5L19,17.5z"/>
	<rect x="8" y="11.5" fill="#3BAACA" width="4" height="4"/>
	<rect x="14" y="11.5" fill="#3BAACA" width="4" height="1"/>
	<rect x="14" y="13.6" fill="#3BAACA" width="4" height="0.9"/>
</g>
</svg>
