<?xml version="1.0" encoding="utf-8"?>
<!-- Generator: Adobe Illustrator 18.1.0, SVG Export Plug-In . SVG Version: 6.00 Build 0)  -->
<svg version="1.1" id="Layer_1" xmlns="http://www.w3.org/2000/svg" xmlns:xlink="http://www.w3.org/1999/xlink" x="0px" y="0px"
	 viewBox="0 0 26 26" enable-background="new 0 0 26 26" xml:space="preserve">
<path fill="#3BAACA" d="M13,0C5.8,0,0,5.8,0,13s5.8,13,13,13c7.2,0,13-5.8,13-13S20.2,0,13,0z M13,24C6.9,24,2,19.1,2,13S6.9,2,13,2
	c6.1,0,11,4.9,11,11S19.1,24,13,24z"/>
<path fill="#3BAACA" d="M19,7.7L6,10v5.3l4.3,0.8l-1.7,2.9l2,1.1l2.1-3.6l6.3,1.1V7.7z M8.4,12l1.4-0.2v1.8l-1.4-0.2V12z M16.6,14.7
	l-5.3-0.9v-2.3l5.3-0.9V14.7z"/>
</svg>
