<?xml version="1.0" encoding="utf-8"?>
<!-- Generator: Adobe Illustrator 18.1.0, SVG Export Plug-In . SVG Version: 6.00 Build 0)  -->
<svg version="1.1" id="Layer_1" xmlns="http://www.w3.org/2000/svg" xmlns:xlink="http://www.w3.org/1999/xlink" x="0px" y="0px"
	 viewBox="0 0 26 26" enable-background="new 0 0 26 26" xml:space="preserve">
<path fill="#3BAACA" d="M13,0C5.8,0,0,5.8,0,13s5.8,13,13,13c7.2,0,13-5.8,13-13S20.2,0,13,0z M13,24C6.9,24,2,19.1,2,13S6.9,2,13,2
	c6.1,0,11,4.9,11,11S19.1,24,13,24z"/>
<g>
	<path fill="#3BAACA" d="M10.2,19.3c0-2.7,0-5.3,0-8c0.5,0,1-0.2,1.4-0.6c0.1-0.2,0.3-0.3,0.4-0.5c0.7-1.3,1.4-2.6,2.1-3.9
		c0.1-0.3,0.3-0.5,0.5-0.7c0.3-0.2,0.6-0.4,1-0.2c0.4,0.2,0.6,0.5,0.6,0.9c0,0.2,0,0.3-0.1,0.5c-0.3,1.1-0.6,2.2-0.9,3.3
		c-0.2,0.7,0.3,1.2,1,1.2c1,0,1.9,0,2.9,0c0.7,0,1.2,0.5,1,1.2c-0.3,1.1-0.6,2.1-1,3.1c-0.3,0.9-0.7,1.9-1,2.8
		c-0.2,0.6-0.5,0.8-1.1,0.8c-2.2,0-4.4,0-6.6,0C10.3,19.3,10.3,19.3,10.2,19.3z"/>
	<path fill="#3BAACA" d="M9.2,19.3c-1,0-2,0-3,0c0-2.7,0-5.3,0-8c1,0,2,0,3,0C9.2,14,9.2,16.7,9.2,19.3z"/>
</g>
</svg>
