<?xml version="1.0" encoding="utf-8"?>
<!-- Generator: Adobe Illustrator 18.1.0, SVG Export Plug-In . SVG Version: 6.00 Build 0)  -->
<svg version="1.1" id="Layer_1" xmlns="http://www.w3.org/2000/svg" xmlns:xlink="http://www.w3.org/1999/xlink" x="0px" y="0px"
	 viewBox="0 0 26 26" enable-background="new 0 0 26 26" xml:space="preserve">
<path fill="#3BAACA" d="M13,0C5.8,0,0,5.8,0,13s5.8,13,13,13c7.2,0,13-5.8,13-13S20.2,0,13,0z M13,24C6.9,24,2,19.1,2,13S6.9,2,13,2
	c6.1,0,11,4.9,11,11S19.1,24,13,24z"/>
<path fill="#3BAACA" d="M18.3,8l-0.7-3.5l-2.8,2.8l0.5,2.6l-1.2,1.2c-1-0.7-2.2-1.2-3.5-1.2c-3.2,0-5.8,2.6-5.8,5.8
	c0,3.2,2.6,5.8,5.8,5.8c3.2,0,5.8-2.6,5.8-5.8c0-1.3-0.4-2.5-1.2-3.5l1.2-1.2l2.6,0.5l2.8-2.8L18.3,8z M14.9,15.7
	c0,2.3-1.9,4.3-4.2,4.3s-4.2-1.9-4.2-4.3s1.9-4.3,4.2-4.3c0.9,0,1.7,0.3,2.4,0.8l-1.7,1.7c-0.2-0.1-0.5-0.1-0.7-0.1
	c-1.1,0-1.9,0.9-1.9,1.9s0.9,1.9,1.9,1.9c1.1,0,1.9-0.9,1.9-1.9c0-0.2-0.1-0.5-0.1-0.7l1.7-1.7C14.6,14,14.9,14.8,14.9,15.7z"/>
</svg>
