<?xml version="1.0" encoding="utf-8"?>
<!-- Generator: Adobe Illustrator 18.1.0, SVG Export Plug-In . SVG Version: 6.00 Build 0)  -->
<svg version="1.1" id="Layer_1" xmlns="http://www.w3.org/2000/svg" xmlns:xlink="http://www.w3.org/1999/xlink" x="0px" y="0px"
	 viewBox="0 0 26 26" enable-background="new 0 0 26 26" xml:space="preserve">
<path fill="#3BAACA" d="M13,0C5.8,0,0,5.8,0,13s5.8,13,13,13s13-5.8,13-13S20.2,0,13,0z M13,24C6.9,24,2,19.1,2,13S6.9,2,13,2
	s11,4.9,11,11S19.1,24,13,24z"/>
<path fill="#3BAACA" d="M13,4c-5,0-9,4-9,9c0,5,4,9,9,9s9-4,9-9C22,8,18,4,13,4z M15,6c-0.4-0.6,0.6-0.5,1.9,0
	c2.3,1.3,3.9,3.6,4.1,6.4c-0.3-0.2-0.9-0.3-1.2-0.4c-3.6-0.8-3.4-0.9-5.8-2C10.6,8.4,16,7.8,15,6z M7,14c2,1.6,1.1,3.1,0.1,4.4
	C5.8,17,5,15.1,5,13c0-2.5,1.2-4.8,3-6.2c1.6-0.2,2.4,0.6,3,2.2c0.8,2,0.5,5.2,0,7c-0.5,1.8-1.2-1-2-2c-0.5-0.6-1.6-0.5-2.3-0.2
	C6.8,13.8,6.9,13.9,7,14z M13,21c-1.1,0-2.2-0.2-3.2-0.7c0-0.1,0.1-0.2,0.2-0.3c1.8-2,6-1.3,7-0.1C15.8,20.6,14.5,21,13,21z M19,16
	c-0.2-0.6-1.3-2.9,0-3c1.2-0.1,1.8-0.2,2-0.3c0,0.1,0,0.2,0,0.3c0,1.6-0.5,3.1-1.3,4.4C19.5,17.2,19.3,16.8,19,16z"/>
</svg>
