<?xml version="1.0" encoding="utf-8"?>
<!-- Generator: Adobe Illustrator 18.1.0, SVG Export Plug-In . SVG Version: 6.00 Build 0)  -->
<svg version="1.1" id="Layer_1" xmlns="http://www.w3.org/2000/svg" xmlns:xlink="http://www.w3.org/1999/xlink" x="0px" y="0px"
	 viewBox="0 0 26 26" enable-background="new 0 0 26 26" xml:space="preserve">
<path fill="#3BAACA" d="M13,0C5.8,0,0,5.8,0,13s5.8,13,13,13s13-5.8,13-13S20.2,0,13,0z M13,24C6.9,24,2,19.1,2,13S6.9,2,13,2
	s11,4.9,11,11S19.1,24,13,24z"/>
<path fill="#3BAACA" d="M13,4l2.2,6.3l6.7,0.2l-5.4,4.1l1.9,6.4L13,17.2L7.4,21l1.9-6.4L4,10.5l6.7-0.2L13,4z"/>
</svg>
