<?xml version="1.0" standalone="no"?>
<!DOCTYPE svg PUBLIC "-//W3C//DTD SVG 1.1//EN" "http://www.w3.org/Graphics/SVG/1.1/DTD/svg11.dtd" >
<svg xmlns="http://www.w3.org/2000/svg">
<metadata>Generated by IcoMoon</metadata>
<defs>
<font id="icomoon" horiz-adv-x="1024">
<font-face units-per-em="1024" ascent="960" descent="-64" />
<missing-glyph horiz-adv-x="1024" />
<glyph unicode="&#x20;" d="" horiz-adv-x="512" />
<glyph unicode="&#xe600;" d="M1262.933 955.733l-523.378-546.133-523.378 546.133-216.178-216.178 739.556-807.822 739.556 807.822z" horiz-adv-x="1479" />
<glyph unicode="&#xe601;" d="M122.88 562.517v0l397.312 393.216 122.88-118.784-401.408-393.216 401.408-393.216-122.88-118.784-520.192 512z" horiz-adv-x="643" />
<glyph unicode="&#xe602;" d="M0 451.61l527.754 504.123 181.169-181.169-346.585-330.831 346.585-330.831-181.169-181.169-527.754 504.123 7.877 7.877z" horiz-adv-x="709" />
<glyph unicode="&#xe603;" d="M520.192 562.517v0l-397.312 393.216-122.88-118.784 397.312-393.216-397.312-393.216 122.88-118.784 520.192 512z" horiz-adv-x="643" />
<glyph unicode="&#xe604;" d="M708.923 451.61l-527.754 504.123-181.169-181.169 346.585-330.831-346.585-330.831 181.169-181.169 527.754 504.123-7.877 7.877z" horiz-adv-x="709" />
<glyph unicode="&#xe605;" d="M1262.933-68.267l-523.378 546.133-523.378-546.133-216.178 216.178 739.556 807.822 739.556-807.822z" horiz-adv-x="1479" />
<glyph unicode="&#xe606;" d="M453.486 370.59v585.143h-146.286v-585.143h-292.571l365.714-438.857 365.714 438.857z" horiz-adv-x="746" />
<glyph unicode="&#xe607;" d="M937.465 508.634l-468.732 447.099-468.732-447.099 151.437-144.225 209.127 194.704v-627.38h216.338v627.38l201.915-194.704z" horiz-adv-x="937" />
<glyph unicode="&#xe608;" d="M1147.78 381.843l-573.89 573.89-573.89-573.89h405.099v-450.11h337.582v450.11z" horiz-adv-x="1148" />
<glyph unicode="&#xe609;" d="M0 640.656h1024v-708.923h-1024v708.923zM393.846 798.195h236.308v-78.769h157.538v236.308h-551.385v-236.308h157.538z" />
<glyph unicode="&#xe60a;" d="M0 78.019h1097.143v-146.286h-1097.143v146.286zM1024 728.99l-226.743 226.743-731.429-731.429h453.486z" horiz-adv-x="1097" />
<glyph unicode="&#xe60b;" d="M1408 913.066c-51.2 51.2-136.533 51.2-187.733 0l-665.6-665.6-324.267 324.267c-51.2 51.2-136.533 51.2-187.733 0s-51.2-136.533 0-187.733l418.133-418.133c17.067-25.6 59.733-34.133 93.867-34.133s68.267 8.533 102.4 42.667l759.467 759.467c42.667 42.667 42.667 128-8.533 179.2z" horiz-adv-x="1451" />
<glyph unicode="&#xe60c;" d="M1231.88 778.65l-177.083 177.083-669.835-677.534-215.579 215.579-169.383-177.083 384.962-384.962 169.383 177.083z" horiz-adv-x="1232" />
<glyph unicode="&#xe60d;" d="M512 955.733c-281.6 0-512-230.4-512-512s230.4-512 512-512c281.6 0 512 230.4 512 512s-230.4 512-512 512zM512 123.733c-179.2 0-320 140.8-320 320s140.8 320 320 320c153.6 0 288-115.2 313.6-262.4-6.4 6.4-19.2 6.4-25.6 6.4h-160v96c0 51.2-44.8 96-96 96s-96-44.8-96-96v-192c0-51.2 44.8-96 96-96h256c0 0 6.4 0 6.4 0-51.2-115.2-166.4-192-294.4-192z" />
<glyph unicode="&#xe60e;" d="M1024 811.168l-144.565 144.565-367.435-367.435-367.435 367.435-144.565-144.565 367.435-367.435-367.435-367.435 144.565-144.565 367.435 361.412 367.435-361.412 144.565 144.565-361.412 367.435z" />
<glyph unicode="&#xe60f;" d="M901.12 279.893c75.093 75.093 122.88 163.84 122.88 266.24 0 225.28-232.107 409.6-512 409.6s-512-184.32-512-409.6 232.107-409.6 512-409.6c47.787 0 88.747 6.827 129.707 13.653l361.813-218.453-102.4 348.16z" />
<glyph unicode="&#xe610;" d="M691.2 443.733l290.133 290.133c51.2 51.2 51.2 128 0 179.2s-128 51.2-179.2 0l-290.133-290.133-290.133 290.133c-51.2 51.2-136.533 51.2-187.733 0s-51.2-128 0-179.2l290.133-290.133-290.133-290.133c-51.2-51.2-51.2-128 0-179.2s128-51.2 179.2 0l298.667 290.133 290.133-290.133c51.2-51.2 128-51.2 179.2 0s51.2 128 0 179.2l-290.133 290.133z" />
<glyph unicode="&#xe611;" d="M0 78.019h950.857v-146.286h-950.857v146.286zM475.429 151.162l475.429 438.857h-292.571v365.714h-365.714v-365.714h-292.571z" horiz-adv-x="951" />
<glyph unicode="&#xe612;" d="M1297.067 955.733h-1160.533c-75.093 0-136.533-61.44-136.533-136.533v-750.933c0-75.093 61.44-136.533 136.533-136.533h1160.533c75.093 0 136.533 61.44 136.533 136.533v750.933c0 75.093-61.44 136.533-136.533 136.533zM1228.8 819.2l-512-498.347-512 498.347h1024zM136.533 136.533v573.44l300.373-293.547-300.373-279.893zM218.453 68.266l293.547 279.893 204.8-204.8 204.8 204.8 293.547-279.893h-996.693zM1297.067 136.533l-300.373 279.893 300.373 293.547v-573.44z" horiz-adv-x="1434" />
<glyph unicode="&#xe613;" d="M197.973-27.307c6.827 34.133 13.653 68.267 20.48 95.573 13.653 68.267 27.307 136.533 34.133 204.8 0 13.653 0 27.307-13.653 40.96-75.093 68.267-143.36 136.533-218.453 204.8-13.653 20.48-27.307 34.133-20.48 47.787s20.48 20.48 34.133 27.307c102.4 13.653 204.8 27.307 300.373 40.96 20.48 0 27.307 13.653 40.96 27.307 40.96 88.747 88.747 177.493 136.533 266.24 6.827 20.48 13.653 27.307 34.133 27.307s27.307-13.653 34.133-27.307c40.96-88.747 88.747-177.493 136.533-266.24 6.827-20.48 20.48-27.307 40.96-27.307 102.4-13.653 197.973-27.307 300.373-40.96 13.653 0 27.307-6.827 34.133-27.307 6.827-13.653 0-27.307-13.653-40.96-75.093-68.267-143.36-136.533-218.453-211.627-13.653-13.653-20.48-27.307-13.653-47.787 20.48-95.573 34.133-191.147 54.613-293.547 0-13.653 0-27.307-13.653-40.96s-27.307-6.827-40.96 0c-88.747 47.787-177.493 88.747-266.24 136.533-20.48 6.827-34.133 6.827-47.787 0-88.747-47.787-177.493-88.747-266.24-136.533-40.96-6.827-75.093 6.827-68.267 40.96z" horiz-adv-x="1092" />
<glyph unicode="&#xe614;" d="M0 955.733v-1024h1024v1024h-1024zM954.182 1.551h-93.091c-46.545 86.109-97.745 144.291-139.636 162.909s-69.818 23.273-69.818 23.273-23.273-65.164-139.636-69.818-139.636 69.818-139.636 69.818-32.582 2.327-69.818-23.273c-102.4-65.164-132.655-118.691-137.309-162.909v0h-95.418v884.364h884.364v-884.364zM279.273 234.278c74.473 0 93.091 0 93.091 0v9.309c39.564-34.909 88.436-55.855 141.964-55.855 55.855 0 104.727 20.945 144.291 58.182 16.291-4.655 39.564-11.636 62.836-11.636 46.545 0 44.218-25.6 23.273 302.545-4.655 83.782-74.473 158.255-116.364 162.909-13.964 2.327-27.927 6.982-44.218 9.309-23.273 9.309-46.545 13.964-72.145 13.964 0 0 0 0 0 0-13.964 0-27.927 2.327-46.545 0-179.2-13.964-239.709-258.327-232.727-302.545 25.6-155.927-41.891-186.182 46.545-186.182zM605.091 629.915c2.327 4.655 4.655 6.982 9.309 11.636 51.2-39.564 83.782-107.055 83.782-186.182 0-121.018-83.782-221.091-186.182-221.091-62.836 0-118.691 37.236-153.6 95.418l-9.309 67.491c0 0 128 53.527 256 232.727z" />
<glyph unicode="&#xe615;" d="M819.2 296.533c-115.2 115.2-230.4 236.8-345.6 352-108.8 115.2-147.2 153.6-262.4 268.8-12.8 12.8-32 32-57.6 38.4-6.4 0-12.8 0-25.6 0-12.8-6.4-32-12.8-38.4-32-6.4-6.4-12.8-19.2-19.2-32 0-6.4 0-12.8 0-19.2 6.4-25.6 25.6-44.8 44.8-64 57.6-64 51.2-51.2 108.8-108.8 0 0 0 0 0 0-6.4 0-6.4-6.4-12.8-6.4-64-44.8-121.6-96-172.8-160-12.8-32-32-51.2-38.4-83.2 0-6.4 0-6.4 0-12.8 32-70.4 83.2-128 140.8-179.2 44.8-44.8 96-76.8 153.6-108.8 70.4-38.4 147.2-64 230.4-70.4 89.6-6.4 172.8 6.4 256 38.4 6.4 0 12.8 0 19.2-6.4 76.8-76.8 76.8-83.2 153.6-160 12.8-12.8 25.6-19.2 38.4-25.6 6.4 0 19.2 0 25.6 0 0 0 0 0 0 0 51.2 12.8 76.8 76.8 32 128-96 108.8-128 140.8-230.4 243.2zM435.2 277.333c-83.2 70.4-89.6 185.6-51.2 256 96-96 192-192 281.6-288-51.2-32-153.6-32-230.4 32zM1145.6 462.933c-6.4 12.8-6.4 19.2-12.8 32-19.2 38.4-51.2 70.4-83.2 102.4-70.4 70.4-147.2 121.6-230.4 160s-172.8 57.6-268.8 57.6c-6.4 0-19.2 0-25.6 0 172.8-172.8 345.6-352 512-524.8 12.8 12.8 32 32 44.8 44.8 19.2 25.6 38.4 51.2 57.6 83.2 12.8 6.4 19.2 25.6 6.4 44.8z" horiz-adv-x="1152" />
<glyph unicode="&#xe616;" d="M988.486 393.421l-5.919 11.838c-11.838 17.757-23.676 35.514-41.434 47.353-11.838 11.838-29.595 17.757-47.353 23.676 47.353 23.676 76.948 53.272 88.786 88.786 11.838 29.595 5.919 59.191-5.919 82.867v0c-17.757 29.595-41.434 47.353-76.948 59.191-23.676 5.919-47.353 5.919-65.11 0l-47.353-11.838 17.757 35.514c11.838 47.353 11.838 88.786-11.838 136.139l-5.919 5.919c-23.676 35.514-53.272 59.191-94.705 71.029-53.272 17.757-94.705 11.838-136.139-11.838s-71.029-53.272-82.867-94.705v0-11.838l-5.919 5.919-17.757 29.595c-23.676 35.514-47.353 59.191-88.786 65.11-29.595 5.919-59.191 5.919-82.867-11.838-29.595-17.757-47.353-47.353-53.272-82.867-5.919-41.434 0-82.867 23.676-124.301l11.838-11.838-41.434 5.919c-41.434 11.838-82.867 5.919-124.301-17.757-41.434-17.757-65.11-47.353-82.867-94.705-17.757-41.434-11.838-76.948 5.919-118.382 5.919-17.757 23.676-29.595 35.514-35.514 11.838-11.838 35.514-23.676 59.191-29.595h11.838l-23.676-23.676c-17.757-17.757-29.595-41.434-41.434-59.191 0-23.676 0-53.272 17.757-76.948 5.919-11.838 11.838-23.676 23.676-29.595 11.838-11.838 23.676-17.757 41.434-17.757 29.595-5.919 65.11-5.919 100.624 5.919l-23.676-41.434-5.919-17.757c-11.838-47.353-11.838-88.786 11.838-130.22 11.838-17.757 23.676-29.595 35.514-41.434 17.757-17.757 41.434-23.676 65.11-35.514 41.434-11.838 88.786-11.838 130.22 11.838s65.11 59.191 76.948 100.624v5.919c29.595-29.595 53.272-53.272 82.867-59.191s59.191-5.919 82.867 11.838c23.676 11.838 41.434 41.434 53.272 71.029 5.919 29.595 5.919 65.11 0 100.624 11.838-11.838 29.595-17.757 47.353-23.676 47.353-11.838 88.786-11.838 124.301 5.919 41.434 23.676 65.11 59.191 76.948 100.624 11.838 47.353 5.919 88.786-11.838 130.22zM775.399 636.103l17.757 5.919c23.676 11.838 53.272 11.838 76.948 11.838s41.434-11.838 53.272-29.595l5.919-23.676v-11.838c-11.838-23.676-29.595-47.353-65.11-65.11-11.838-5.919-29.595-11.838-47.353-11.838l-177.572-23.676v17.757l5.919 5.919 130.22 124.301zM532.717 813.675c5.919 29.595 29.595 53.272 53.272 65.11 23.676 17.757 53.272 17.757 82.867 11.838s53.272-23.676 65.11-47.353c5.919-11.838 11.838-29.595 11.838-53.272l-5.919-29.595c-5.919-17.757-11.838-29.595-23.676-41.434l-130.22-165.734c-11.838 11.838-23.676 17.757-41.434 29.595l-11.838 159.815v71.029zM284.116 813.675c0 23.676 11.838 41.434 29.595 53.272 5.919 5.919 23.676 5.919 35.514 0 23.676-5.919 47.353-23.676 65.11-65.11 5.919-11.838 11.838-23.676 11.838-41.434l29.595-171.653-17.757-5.919-130.22 136.139-5.919 17.757c-11.838 23.676-23.676 47.353-17.757 76.948zM142.058 464.45h-11.838c-29.595 5.919-47.353 17.757-59.191 41.434s-11.838 41.434 0 65.11c11.838 29.595 29.595 47.353 59.191 59.191 23.676 17.757 47.353 17.757 76.948 11.838l41.434-17.757 124.301-94.705c-11.838-11.838-17.757-23.676-23.676-41.434l-207.168-23.676zM473.526 79.71v-11.838c-11.838-23.676-29.595-47.353-53.272-59.191s-53.272-17.757-76.948-11.838c-29.595 5.919-53.272 23.676-65.11 47.353-5.919 11.838-11.838 29.595-11.838 47.353l5.919 35.514c0 11.838 11.838 29.595 23.676 41.434l118.382 142.058c11.838-5.919 29.595-11.838 47.353-17.757 0-47.353 5.919-100.624 11.838-159.815 0 0 0-53.272 0-53.272zM426.173 369.745c-17.757 11.838-29.595 41.434-29.595 65.11s11.838 47.353 29.595 65.11c17.757 17.757 41.434 23.676 65.11 23.676s53.272-11.838 65.11-23.676c23.676-17.757 29.595-41.434 29.595-65.11s-5.919-53.272-29.595-65.11c-17.757-17.757-41.434-29.595-65.11-29.595s-47.353 5.919-65.11 29.595zM692.532 115.224c0-23.676-11.838-47.353-29.595-53.272-11.838-5.919-23.676-5.919-35.514-5.919-29.595 5.919-47.353 29.595-65.11 65.11l-17.757 47.353-23.676 124.301 29.595 11.838 17.757 11.838 59.191-65.11 35.514-47.353 5.919-11.838c17.757-29.595 29.595-53.272 23.676-76.948zM941.133 280.958c-5.919-29.595-23.676-53.272-47.353-65.11s-53.272-17.757-82.867-5.919c-17.757 5.919-29.595 11.838-41.434 23.676l-147.977 130.22 11.838 23.676 5.919 17.757 165.734 11.838h71.029c23.676-5.919 41.434-17.757 53.272-41.434 11.838-17.757 23.676-35.514 23.676-65.11l-11.838-29.595z" horiz-adv-x="1006" />
<glyph unicode="&#xe617;" d="M551.385 829.702c31.508 39.385 70.892 70.892 118.154 94.523 189.046 94.523 417.477-31.508 433.231-244.185 7.877-86.646-23.631-157.538-78.769-220.554-149.662-165.415-291.446-338.708-441.108-504.123-23.631-31.508-55.138-31.508-78.769 0-78.769 94.523-157.538 189.046-244.185 283.569-63.015 78.769-133.908 149.662-196.923 228.431-86.646 110.277-94.523 267.815 0 370.215 126.031 157.538 354.462 149.662 480.492 0 0 0 7.877 0 7.877-7.877z" horiz-adv-x="1103" />
<glyph unicode="&#xe618;" d="M111.935 955.733c-8.291-16.583-16.583-29.020-33.166-41.457s-33.166-20.729-58.040-29.020v-62.186c16.583 4.146 33.166 12.437 41.457 16.583 12.437 4.146 24.874 12.437 37.312 20.729v-178.267h74.623v273.619h-62.186zM223.87 371.182h-116.081c8.291 8.291 12.437 12.437 16.583 16.583s16.583 12.437 29.020 20.729 41.457 33.166 53.895 49.749 12.437 29.020 12.437 45.603c0 16.583-4.146 29.020-12.437 41.457s-16.583 20.729-33.166 29.020c-12.437 4.146-33.166 8.291-62.186 8.291-24.874 0-41.457-4.146-58.040-8.291-12.437-8.291-24.874-16.583-33.166-29.020s-12.437-29.020-16.583-49.749l74.623-4.146c0 16.583 4.146 24.874 12.437 33.166 4.146 4.146 12.437 8.291 24.874 8.291 8.291 0 16.583-4.146 20.729-8.291s8.291-12.437 8.291-20.729c0-8.291-4.146-16.583-8.291-24.874s-20.729-20.729-41.457-37.312c-37.312-24.874-58.040-49.749-74.623-70.478-12.437-20.729-20.729-41.457-24.874-62.186h223.87l4.146 62.186zM87.061 155.603c4.146 4.146 12.437 8.291 20.729 8.291s16.583-4.146 20.729-8.291c4.146-4.146 8.291-12.437 8.291-20.729s-4.146-16.583-8.291-20.729c-8.291-4.146-16.583-8.291-24.874-8.291-4.146 0-4.146 0-8.291 0l-4.146-53.895c8.291 4.146 16.583 4.146 24.874 4.146 12.437 0 20.729-4.146 24.874-8.291 8.291-8.291 8.291-16.583 8.291-29.020s-4.146-20.729-8.291-29.020c-8.291-8.291-16.583-12.437-24.874-12.437s-16.583 4.146-24.874 8.291c-8.291 8.291-12.437 16.583-12.437 33.166l-74.623-8.291c4.146-16.583 12.437-29.020 20.729-41.457s20.729-20.729 33.166-24.874 33.166-8.291 58.040-8.291c24.874 0 45.603 4.146 62.186 12.437s29.020 20.729 33.166 33.166c8.291 12.437 12.437 29.020 12.437 45.603 0 12.437-4.146 24.874-8.291 33.166s-12.437 16.583-20.729 20.729c-4.146 4.146-12.437 8.291-24.874 8.291 12.437 8.291 20.729 16.583 29.020 24.874s8.291 20.729 8.291 33.166c0 20.729-8.291 37.312-24.874 49.749s-37.312 12.437-70.478 12.437c-29.020 0-53.895-4.146-70.478-16.583s-29.020-29.020-33.166-49.749l70.478-16.583c0 12.437 4.146 24.874 8.291 29.020zM364.826 806.486h663.32v-41.457h-663.32v41.457zM364.826 433.369h663.32v-41.457h-663.32v41.457zM364.826 60.251h663.32v-41.457h-663.32v41.457z" horiz-adv-x="1028" />
<glyph unicode="&#xe619;" d="M111.935 955.733c-8.291-16.583-16.583-29.020-33.166-41.457s-33.166-20.729-58.040-29.020v-62.186c16.583 4.146 33.166 12.437 41.457 16.583 12.437 4.146 24.874 12.437 37.312 20.729v-178.267h74.623v273.619h-62.186zM223.87 371.182h-116.081c8.291 8.291 12.437 12.437 16.583 16.583s16.583 12.437 29.020 20.729 41.457 33.166 53.895 49.749 12.437 29.020 12.437 45.603c0 16.583-4.146 29.020-12.437 41.457s-16.583 20.729-33.166 29.020c-12.437 4.146-33.166 8.291-62.186 8.291-24.874 0-41.457-4.146-58.040-8.291-12.437-8.291-24.874-16.583-33.166-29.020s-12.437-29.020-16.583-49.749l74.623-4.146c0 16.583 4.146 24.874 12.437 33.166 4.146 4.146 12.437 8.291 24.874 8.291 8.291 0 16.583-4.146 20.729-8.291s8.291-12.437 8.291-20.729c0-8.291-4.146-16.583-8.291-24.874s-20.729-20.729-41.457-37.312c-37.312-24.874-58.040-49.749-74.623-70.478-12.437-20.729-20.729-41.457-24.874-62.186h223.87l4.146 62.186zM87.061 155.603c4.146 4.146 12.437 8.291 20.729 8.291s16.583-4.146 20.729-8.291c4.146-4.146 8.291-12.437 8.291-20.729s-4.146-16.583-8.291-20.729c-8.291-4.146-16.583-8.291-24.874-8.291-4.146 0-4.146 0-8.291 0l-4.146-53.895c8.291 4.146 16.583 4.146 24.874 4.146 12.437 0 20.729-4.146 24.874-8.291 8.291-8.291 8.291-16.583 8.291-29.020s-4.146-20.729-8.291-29.020c-8.291-8.291-16.583-12.437-24.874-12.437s-16.583 4.146-24.874 8.291c-8.291 8.291-12.437 16.583-12.437 33.166l-74.623-8.291c4.146-16.583 12.437-29.020 20.729-41.457s20.729-20.729 33.166-24.874 33.166-8.291 58.040-8.291c24.874 0 45.603 4.146 62.186 12.437s29.020 20.729 33.166 33.166c8.291 12.437 12.437 29.020 12.437 45.603 0 12.437-4.146 24.874-8.291 33.166s-12.437 16.583-20.729 20.729c-4.146 4.146-12.437 8.291-24.874 8.291 12.437 8.291 20.729 16.583 29.020 24.874s8.291 20.729 8.291 33.166c0 20.729-8.291 37.312-24.874 49.749s-37.312 12.437-70.478 12.437c-29.020 0-53.895-4.146-70.478-16.583s-29.020-29.020-33.166-49.749l70.478-16.583c0 12.437 4.146 24.874 8.291 29.020zM364.826 806.486h663.32v-41.457h-663.32v41.457zM364.826 433.369h663.32v-41.457h-663.32v41.457zM364.826 60.251h663.32v-41.457h-663.32v41.457z" horiz-adv-x="1028" />
<glyph unicode="&#xe61a;" d="M512 234.278c128 0 232.727 125.673 232.727 279.273s-104.727 279.273-232.727 279.273-232.727-125.673-232.727-279.273c0-153.6 104.727-279.273 232.727-279.273zM512 734.642c102.4 0 186.182-100.073 186.182-221.091s-83.782-221.091-186.182-221.091-186.182 100.073-186.182 221.091c0 121.018 83.782 221.091 186.182 221.091zM0 955.733v-1024h1024v1024h-1024zM954.182 1.551h-72.145c-44.218 104.727-46.545 132.655-153.6 214.109-37.236 27.927-79.127 18.618-79.127 18.618s-18.618-74.473-141.964-69.818c-123.345 2.327-148.945 76.8-148.945 76.8s-9.309 2.327-48.873-25.6c-128-86.109-146.618-151.273-146.618-207.127 0-2.327 0-4.655 0-6.982h-93.091v884.364h884.364v-884.364z" />
<glyph unicode="&#xe61b;" d="M416 955.733c-230.4 0-416-179.2-416-403.2s416-620.8 416-620.8 416 396.8 416 620.8c0 224-185.6 403.2-416 403.2zM416 315.733c-121.6 0-224 102.4-224 224s102.4 224 224 224 224-102.4 224-224-102.4-224-224-224z" horiz-adv-x="832" />
<glyph unicode="&#xe61c;" d="M768 955.733h-512c-140.8 0-256-115.2-256-256v-512c0-140.8 115.2-256 256-256h512c140.8 0 256 115.2 256 256v512c0 140.8-115.2 256-256 256zM896 187.733c0-70.4-57.6-128-128-128h-512c-70.4 0-128 57.6-128 128v512c0 70.4 57.6 128 128 128h512c70.4 0 128-57.6 128-128v-512zM320 507.733h384c38.4 0 64-25.6 64-64s-25.6-64-64-64h-384c-38.4 0-64 25.6-64 64s25.6 64 64 64z" />
<glyph unicode="&#xe61d;" d="M84.329 528.062h855.341c48.188 0 84.329-36.141 84.329-84.329s-36.141-84.329-84.329-84.329h-855.341c-48.188 0-84.329 36.141-84.329 84.329s36.141 84.329 84.329 84.329z" />
<glyph unicode="&#xe61e;" d="M768 955.733h-512c-140.8 0-256-115.2-256-256v-512c0-140.8 115.2-256 256-256h512c140.8 0 256 115.2 256 256v512c0 140.8-115.2 256-256 256zM896 187.733c0-70.4-57.6-128-128-128h-512c-70.4 0-128 57.6-128 128v512c0 70.4 57.6 128 128 128h512c70.4 0 128-57.6 128-128v-512zM704 507.733h-128v128c0 38.4-25.6 64-64 64s-64-25.6-64-64v-128h-128c-38.4 0-64-25.6-64-64s25.6-64 64-64h128v-128c0-38.4 25.6-64 64-64s64 25.6 64 64v128h128c38.4 0 64 25.6 64 64s-25.6 64-64 64z" />
<glyph unicode="&#xe61f;" d="M939.671 528.062h-343.341v343.341c0 48.188-36.141 84.329-84.329 84.329s-84.329-36.141-84.329-84.329v-343.341h-343.341c-48.188 0-84.329-36.141-84.329-84.329s36.141-84.329 84.329-84.329h343.341v-343.341c0-48.188 36.141-84.329 84.329-84.329s84.329 36.141 84.329 84.329v343.341h343.341c48.188 0 84.329 36.141 84.329 84.329s-36.141 84.329-84.329 84.329z" />
<glyph unicode="&#xe620;" d="M365.714 955.733h512v-292.571h-512v292.571zM365.714 151.162h512v-219.429h-512v219.429zM1097.143 736.304h-73.143v-219.429h-804.571v219.429h-73.143c-80.457 0-146.286-65.829-146.286-146.286v-512h219.429v219.429h804.571v-219.429h219.429v512c0 80.457-65.829 146.286-146.286 146.286z" horiz-adv-x="1243" />
<glyph unicode="&#xe621;" d="M150.187 723.626c-122.88-184.32-116.053-375.467 0-566.613-47.787-40.96-95.573-88.747-150.187-129.707 157.013-34.133 314.027-61.44 464.213-95.573 0 163.84 0 334.507 0 498.347-54.613-47.787-102.4-88.747-157.013-136.533-47.787 68.267-61.44 143.36-40.96 218.453 34.133 109.227 102.4 177.493 218.453 191.147 0 68.267 0 136.533 0 204.8-136.533-6.827-252.587-68.267-334.507-184.32zM1092.267 860.16c-157.013 34.133-314.027 61.44-464.213 95.573 0-170.667 0-334.507 0-498.347 54.613 47.787 109.227 95.573 157.013 136.533 34.133-34.133 61.44-116.053 47.787-191.147-20.48-129.707-102.4-197.973-218.453-225.28 0-68.267 0-136.533 0-204.8 157.013 13.653 279.893 88.747 354.987 225.28 102.4 177.493 81.92 354.987-20.48 525.653 40.96 47.787 88.747 95.573 143.36 136.533z" horiz-adv-x="1092" />
<glyph unicode="&#xe622;" d="M974.651 338.866c6.169 30.843 12.337 67.855 12.337 98.699 0 265.253-215.904 481.157-481.157 481.157-30.843 0-55.518 0-80.193-6.169-43.181 24.675-92.53 43.181-148.048 43.181-154.217 0-277.59-123.373-277.59-277.59 0-49.349 12.337-98.699 37.012-141.88-6.169-30.843-12.337-61.687-12.337-98.699 0-265.253 215.904-481.157 481.157-481.157 30.843 0 61.687 0 86.361 6.169 37.012-18.506 86.361-30.843 129.542-30.843 154.217 0 277.59 123.373 277.59 277.59 6.169 49.349-6.169 92.53-24.675 129.542zM752.578 209.323c-24.675-30.843-55.518-55.518-98.699-74.024s-92.53-24.675-148.048-24.675c-67.855 0-129.542 12.337-172.723 37.012-30.843 18.506-61.687 43.181-80.193 67.855-18.506 30.843-30.843 61.687-30.843 86.361 0 18.506 6.169 30.843 18.506 43.181s30.843 18.506 49.349 18.506c18.506 0 30.843-6.169 43.181-12.337 12.337-12.337 18.506-24.675 30.843-43.181 6.169-18.506 18.506-37.012 24.675-49.349 12.337-12.337 24.675-24.675 43.181-30.843s43.181-12.337 74.024-12.337c37.012 0 74.024 6.169 98.699 24.675s37.012 37.012 37.012 61.687c0 18.506-6.169 30.843-18.506 43.181-18.506 18.506-37.012 24.675-55.518 30.843-24.675 6.169-55.518 12.337-92.53 24.675-49.349 12.337-92.53 24.675-123.373 37.012-37.012 12.337-61.687 37.012-80.193 61.687-24.675 24.675-30.843 55.518-30.843 92.53s12.337 67.855 30.843 98.699c18.506 30.843 55.518 49.349 92.53 61.687 37.012 18.506 86.361 24.675 141.88 24.675 43.181 0 80.193-6.169 111.036-12.337 30.843-12.337 55.518-24.675 80.193-37.012 18.506-18.506 37.012-37.012 43.181-55.518 12.337-18.506 12.337-37.012 12.337-55.518s-6.169-30.843-18.506-49.349c-12.337-12.337-30.843-18.506-49.349-18.506s-30.843 6.169-43.181 12.337c-6.169 6.169-18.506 18.506-30.843 37.012-6.169 24.675-18.506 43.181-37.012 55.518-12.337 12.337-43.181 18.506-80.193 18.506s-61.687-6.169-80.193-18.506c-18.506-12.337-30.843-30.843-30.843-49.349 0-12.337 6.169-18.506 12.337-30.843 6.169-6.169 18.506-18.506 30.843-24.675 6.169 0 18.506-6.169 30.843-6.169 18.506-6.169 37.012-12.337 67.855-18.506 37.012-6.169 74.024-18.506 104.867-30.843s61.687-24.675 80.193-37.012c24.675-12.337 43.181-37.012 55.518-55.518 12.337-24.675 18.506-49.349 18.506-86.361 6.169-37.012-6.169-74.024-30.843-104.867z" horiz-adv-x="1005" />
<glyph unicode="&#xe623;" d="M0 619.733h112v104c0 48 0 112 32 160s88 80 168 80c136 0 192-16 192-16l-24-168c0 0-48 16-88 16s-80-16-80-56v-120h176l-16-152h-160v-528h-200v528h-112v152z" horiz-adv-x="504" />
<glyph unicode="&#xe624;" d="M627.38 407.677c-14.423 28.845-57.69 50.479-115.38 7.211-72.113-57.69-194.704-57.69-194.704-57.69s-122.592 0-194.704 57.69c-57.69 43.268-100.958 21.634-115.38-7.211-28.845-50.479 0-79.324 72.113-115.38 57.69-36.056 137.014-50.479 187.493-57.69l-43.268-43.268c-57.69-57.69-115.38-115.38-158.648-151.437-21.634-21.634-21.634-57.69 0-86.535h7.211c14.423-14.423 28.845-14.423 43.268-14.423v0c14.423 0 28.845 7.211 43.268 14.423l158.648 151.437c57.69-57.69 115.38-115.38 158.648-151.437 21.634-21.634 64.901-21.634 86.535 0l7.211 7.211c21.634 21.634 21.634 57.69 0 86.535l-158.648 151.437-43.268 36.056c50.479 7.211 129.803 21.634 187.493 50.479 64.901 43.268 93.746 72.113 72.113 122.592v0zM317.296 825.93c72.113 0 129.803-57.69 129.803-129.803s-57.69-129.803-129.803-129.803-129.803 57.69-129.803 129.803c0 72.113 57.69 129.803 129.803 129.803v0zM317.296 436.522c144.225 0 266.817 115.38 266.817 259.606s-122.592 259.606-266.817 259.606-266.817-115.38-266.817-259.606c0-144.225 122.592-259.606 266.817-259.606v0z" horiz-adv-x="635" />
<glyph unicode="&#xe625;" d="M1302.369 836.432c-49.709-19.883-99.417-29.825-149.126-39.767 59.65 29.825 99.417 79.534 119.301 139.184-49.709-29.825-109.359-49.709-169.010-59.65-49.709 49.709-119.301 79.534-198.835 79.534-149.126 0-268.427-119.301-268.427-258.485 0-19.883 0-39.767 9.942-59.65-228.66 9.942-427.495 109.359-556.738 268.427-19.883-39.767-29.825-79.534-29.825-129.243 0-89.476 39.767-169.010 119.301-218.718-39.767 0-89.476 9.942-119.301 29.825 0 0 0 0 0 0 0-129.243 89.476-228.66 218.718-258.485-29.825 0-59.65 0-79.534 0s-29.825 0-49.709 0c29.825-99.417 129.243-178.951 248.544-178.951-89.476-69.592-208.777-109.359-338.019-109.359-19.883 0-39.767 0-59.65 0 119.301-69.592 258.485-119.301 407.612-119.301 497.087 0 765.515 397.67 765.515 735.689 0 9.942 0 19.883 0 29.825 49.709 49.709 99.417 99.417 129.243 149.126v0z" horiz-adv-x="1302" />
<glyph unicode="&#xe626;" d="M772.655 415.806c-18.618 18.618-37.236 37.236-65.164 55.855-18.618 0-74.473 18.618-83.782 27.927 93.091 55.855 139.636 102.4 139.636 232.727 9.309 148.945-130.327 223.418-288.582 223.418h-474.764v-1024h456.145c186.182 0 381.673 102.4 381.673 297.891 0 83.782-9.309 139.636-65.164 186.182zM502.691 667.151c0-130.327-111.709-111.709-242.036-111.709v214.109c111.709 0 242.036 18.618 242.036-102.4zM260.655 117.915v251.345c130.327 0 307.2 27.927 307.2-130.327-9.309-139.636-176.873-121.018-307.2-121.018z" horiz-adv-x="838" />
<glyph unicode="&#xe627;" d="M512 955.733c-283.569 0-512-228.431-512-512s228.431-512 512-512c283.569 0 512 228.431 512 512s-228.431 512-512 512zM512 10.502c-240.246 0-433.231 192.985-433.231 433.231s192.985 433.231 433.231 433.231c240.246 0 433.231-192.985 433.231-433.231s-192.985-433.231-433.231-433.231zM512 876.964l-236.308-433.231 236.308-433.231 236.308 433.231-236.308 433.231zM405.662 424.041h212.677l-106.338-224.492-106.338 224.492z" />
<glyph unicode="&#xe628;" d="M512 955.733c-283.569 0-512-228.431-512-512s228.431-512 512-512c283.569 0 512 228.431 512 512s-228.431 512-512 512zM512 10.502c-240.246 0-433.231 192.985-433.231 433.231s192.985 433.231 433.231 433.231c240.246 0 433.231-192.985 433.231-433.231s-192.985-433.231-433.231-433.231zM472.615 191.671c0-43.503-35.266-78.769-78.769-78.769s-78.769 35.266-78.769 78.769c0 43.503 35.266 78.769 78.769 78.769s78.769-35.266 78.769-78.769zM708.923 191.671c0-43.503-35.266-78.769-78.769-78.769s-78.769 35.266-78.769 78.769c0 43.503 35.266 78.769 78.769 78.769s78.769-35.266 78.769-78.769zM827.077 585.518h-472.615v78.769h-157.538v-78.769h78.769v-315.077h433.231l118.154 315.077zM590.769 506.748h122.092l-27.569-78.769h-94.523v78.769zM433.231 349.21h-78.769v39.385h78.769v-39.385zM433.231 427.979h-78.769v78.769h78.769v-78.769zM551.385 349.21h-78.769v39.385h78.769v-39.385zM551.385 427.979h-78.769v78.769h78.769v-78.769zM590.769 349.21v39.385h78.769l-15.754-39.385h-63.015z" />
<glyph unicode="&#xe629;" d="M512 955.733c-283.569 0-512-228.431-512-512s228.431-512 512-512c283.569 0 512 228.431 512 512s-228.431 512-512 512zM512 10.502c-240.246 0-433.231 192.985-433.231 433.231s192.985 433.231 433.231 433.231c240.246 0 433.231-192.985 433.231-433.231s-192.985-433.231-433.231-433.231zM669.538 617.025v118.154h-315.077v-118.154h-157.538v-472.615h630.154v472.615h-157.538zM433.231 656.41h157.538v-39.385h-157.538v39.385zM708.923 301.948h-393.846v39.385h393.846v-39.385zM708.923 420.102h-393.846v39.385h393.846v-39.385z" />
<glyph unicode="&#xe62a;" d="M512 955.733c-283.569 0-512-228.431-512-512s228.431-512 512-512c283.569 0 512 228.431 512 512s-228.431 512-512 512zM512 10.502c-240.246 0-433.231 192.985-433.231 433.231s192.985 433.231 433.231 433.231c240.246 0 433.231-192.985 433.231-433.231s-192.985-433.231-433.231-433.231zM401.723 195.61c0 106.338 0 208.738 0 315.077 19.692 0 39.385 7.877 55.138 23.631 3.938 7.877 11.815 11.815 15.754 19.692 27.569 51.2 55.138 102.4 82.708 153.6 3.938 11.815 11.815 19.692 19.692 27.569 11.815 7.877 23.631 15.754 39.385 7.877s23.631-19.692 23.631-35.446c0-7.877 0-11.815-3.938-19.692-11.815-43.323-23.631-86.646-35.446-129.969-7.877-27.569 11.815-47.262 39.385-47.262 39.385 0 74.831 0 114.215 0 27.569 0 47.262-19.692 39.385-47.262-11.815-43.323-23.631-82.708-39.385-122.092-11.815-35.446-27.569-74.831-39.385-110.277-7.877-23.631-19.692-31.508-43.323-31.508-86.646 0-173.292 0-259.938 0-3.938-3.938-3.938-3.938-7.877-3.938zM362.338 195.61c-39.385 0-78.769 0-118.154 0 0 106.338 0 208.738 0 315.077 39.385 0 78.769 0 118.154 0 0-106.338 0-212.677 0-315.077z" />
<glyph unicode="&#xe62b;" d="M512 955.733c-283.569 0-512-228.431-512-512s228.431-512 512-512c283.569 0 512 228.431 512 512s-228.431 512-512 512zM512 10.502c-240.246 0-433.231 192.985-433.231 433.231s192.985 433.231 433.231 433.231c240.246 0 433.231-192.985 433.231-433.231s-192.985-433.231-433.231-433.231zM720.738 640.656l-27.569 137.846-110.277-110.277 19.692-102.4-47.262-47.262c-39.385 27.569-86.646 47.262-137.846 47.262-126.031 0-228.431-102.4-228.431-228.431s102.4-228.431 228.431-228.431c126.031 0 228.431 102.4 228.431 228.431 0 51.2-15.754 98.462-47.262 137.846l47.262 47.262 102.4-19.692 110.277 110.277-137.846 27.569zM586.831 337.395c0-90.585-74.831-169.354-165.415-169.354s-165.415 74.831-165.415 169.354 74.831 169.354 165.415 169.354c35.446 0 66.954-11.815 94.523-31.508l-66.954-66.954c-7.877 3.938-19.692 3.938-27.569 3.938-43.323 0-74.831-35.446-74.831-74.831s35.446-74.831 74.831-74.831c43.323 0 74.831 35.446 74.831 74.831 0 7.877-3.938 19.692-3.938 27.569l66.954 66.954c15.754-27.569 27.569-59.077 27.569-94.523z" />
<glyph unicode="&#xe62c;" d="M512 955.733c-283.569 0-512-228.431-512-512s228.431-512 512-512c283.569 0 512 228.431 512 512s-228.431 512-512 512zM512 10.502c-240.246 0-433.231 192.985-433.231 433.231s192.985 433.231 433.231 433.231 433.231-192.985 433.231-433.231-192.985-433.231-433.231-433.231zM590.769 660.348v78.769h-157.538v-78.769h-236.308v-472.615h630.154v472.615h-236.308zM748.308 266.502h-472.615v315.077h157.538v-39.385h157.538v39.385h157.538v-315.077zM315.077 502.81h157.538v-157.538h-157.538v157.538zM551.385 502.81h157.538v-39.385h-157.538v39.385zM551.385 420.102h157.538v-35.446h-157.538v35.446z" />
<glyph unicode="&#xe62d;" d="M512 955.733c-283.569 0-512-228.431-512-512s228.431-512 512-512c283.569 0 512 228.431 512 512s-228.431 512-512 512zM512 10.502c-240.246 0-433.231 192.985-433.231 433.231s192.985 433.231 433.231 433.231c240.246 0 433.231-192.985 433.231-433.231s-192.985-433.231-433.231-433.231zM472.615 305.887h275.692v-78.769h-275.692v78.769zM472.615 463.425h275.692v-78.769h-275.692v78.769zM472.615 620.964h275.692v-78.769h-275.692v78.769zM275.692 305.887h118.154v-78.769h-118.154v78.769zM275.692 463.425h118.154v-78.769h-118.154v78.769zM275.692 620.964h118.154v-78.769h-118.154v78.769z" />
<glyph unicode="&#xe62e;" d="M512 955.733c-283.569 0-512-228.431-512-512s228.431-512 512-512c283.569 0 512 228.431 512 512s-228.431 512-512 512zM512 10.502c-240.246 0-433.231 192.985-433.231 433.231s192.985 433.231 433.231 433.231c240.246 0 433.231-192.985 433.231-433.231s-192.985-433.231-433.231-433.231zM256 636.718h512v-118.154h-512v118.154zM256 479.179h512v-118.154h-512v118.154zM256 321.641h315.077v-118.154h-315.077v118.154z" />
<glyph unicode="&#xe62f;" d="M512 955.733c-283.569 0-512-228.431-512-512s228.431-512 512-512c283.569 0 512 228.431 512 512s-228.431 512-512 512zM512 10.502c-240.246 0-433.231 192.985-433.231 433.231s192.985 433.231 433.231 433.231c240.246 0 433.231-192.985 433.231-433.231s-192.985-433.231-433.231-433.231zM724.677 664.287l-271.754-279.631-153.6 157.538-102.4-102.4 157.538-157.538h-3.938l102.4-102.4 374.154 382.031z" />
<glyph unicode="&#xe630;" d="M512 955.733c-283.569 0-512-228.431-512-512s228.431-512 512-512c283.569 0 512 228.431 512 512s-228.431 512-512 512zM512 10.502c-240.246 0-433.231 192.985-433.231 433.231s192.985 433.231 433.231 433.231c240.246 0 433.231-192.985 433.231-433.231s-192.985-433.231-433.231-433.231zM787.692 498.871h-196.923v196.923h-157.538v-196.923h-196.923v-157.538h196.923v-196.923h157.538v196.923h196.923z" />
<glyph unicode="&#xe631;" d="M512 955.733c-283.569 0-512-228.431-512-512s228.431-512 512-512 512 228.431 512 512-228.431 512-512 512zM512 10.502c-240.246 0-433.231 192.985-433.231 433.231s192.985 433.231 433.231 433.231 433.231-192.985 433.231-433.231-192.985-433.231-433.231-433.231zM512 798.195l86.646-248.123 263.877-7.877-212.677-161.477 74.831-252.062-212.677 149.662-220.554-149.662 74.831 252.062-208.738 161.477 263.877 7.877 90.585 248.123z" />
<glyph unicode="&#xe632;" d="M512 955.733c-283.569 0-512-228.431-512-512s228.431-512 512-512c283.569 0 512 228.431 512 512s-228.431 512-512 512zM512 10.502c-240.246 0-433.231 192.985-433.231 433.231s192.985 433.231 433.231 433.231 433.231-192.985 433.231-433.231-192.985-433.231-433.231-433.231zM433.231 758.81v-118.154h157.538v118.154h-157.538zM590.769 601.271h-157.538l-39.385-236.308 118.154-275.692 118.154 275.692-39.385 236.308z" />
<glyph unicode="&#xe633;" d="M512 955.733c-283.569 0-512-228.431-512-512s228.431-512 512-512c283.569 0 512 228.431 512 512s-228.431 512-512 512zM512 10.502c-240.246 0-433.231 192.985-433.231 433.231s192.985 433.231 433.231 433.231c240.246 0 433.231-192.985 433.231-433.231s-192.985-433.231-433.231-433.231zM622.277 447.671l-110.277 252.062-110.277-252.062-165.415 153.6 78.769-413.538h393.846l78.769 413.538z" />
<glyph unicode="&#xe634;" d="M512 955.733c-283.569 0-512-228.431-512-512s228.431-512 512-512c283.569 0 512 228.431 512 512s-228.431 512-512 512zM512 10.502c-240.246 0-433.231 192.985-433.231 433.231s192.985 433.231 433.231 433.231c240.246 0 433.231-192.985 433.231-433.231s-192.985-433.231-433.231-433.231zM748.308 652.471l-512-90.585v-208.738l169.354-31.508-66.954-114.215 78.769-43.323 82.708 141.785 248.123-43.323v389.908zM330.831 483.118l55.138 7.877v-70.892l-55.138 7.877v55.138zM653.785 376.779l-208.738 35.446v90.585l208.738 35.446v-161.477z" />
<glyph unicode="&#xe635;" d="M512 955.733c-283.569 0-512-228.431-512-512s228.431-512 512-512 512 228.431 512 512-228.431 512-512 512zM512 10.502c-240.246 0-433.231 192.985-433.231 433.231s192.985 433.231 433.231 433.231 433.231-192.985 433.231-433.231-192.985-433.231-433.231-433.231zM512 798.195c-196.923 0-354.462-157.538-354.462-354.462s157.538-354.462 354.462-354.462 354.462 157.538 354.462 354.462c0 196.923-157.538 354.462-354.462 354.462zM590.769 719.425c-15.754 23.631 23.631 19.692 74.831 0 90.585-51.2 153.6-141.785 161.477-252.062-11.815 7.877-35.446 11.815-47.262 15.754-141.785 31.508-133.908 35.446-228.431 78.769-133.908 63.015 78.769 86.646 39.385 157.538zM275.692 404.348c78.769-63.015 43.323-122.092 3.938-173.292-51.2 55.138-82.708 129.969-82.708 212.677 0 98.462 47.262 189.046 118.154 244.185 63.015 7.877 94.523-23.631 118.154-86.646 31.508-78.769 19.692-204.8 0-275.692s-47.262 39.385-78.769 78.769c-19.692 23.631-63.015 19.692-90.585 7.877 3.938 0 7.877-3.938 11.815-7.877zM512 128.656c-43.323 0-86.646 7.877-126.031 27.569 0 3.938 3.938 7.877 7.877 11.815 70.892 78.769 236.308 51.2 275.692 3.938-47.262-27.569-98.462-43.323-157.538-43.323zM748.308 325.579c-7.877 23.631-51.2 114.215 0 118.154 47.262 3.938 70.892 7.877 78.769 11.815 0-3.938 0-7.877 0-11.815 0-63.015-19.692-122.092-51.2-173.292-7.877 7.877-15.754 23.631-27.569 55.138z" />
<glyph unicode="&#xe636;" d="M1099.597 955.733h-824.698v-343.624h-274.899v-687.248h824.698v343.624h274.899v687.248zM687.248 62.31h-549.799v343.624h549.799v-343.624zM962.148 405.934h-137.45v206.174h-412.349v137.45h549.799v-343.624z" horiz-adv-x="1100" />
</font>
</defs>
</svg>
